<?xml version="1.0" encoding="utf-8"?>
<!-- Generator: Adobe Illustrator 14.0.0, SVG Export Plug-In  -->
<!DOCTYPE svg PUBLIC "-//W3C//DTD SVG 1.1//EN" "http://www.w3.org/Graphics/SVG/1.1/DTD/svg11.dtd" [
	<!ENTITY ns_flows "http://ns.adobe.com/Flows/1.0/">
]>
<svg version="1.1"
	 xmlns="http://www.w3.org/2000/svg" xmlns:xlink="http://www.w3.org/1999/xlink" xmlns:a="http://ns.adobe.com/AdobeSVGViewerExtensions/3.0/"
	 x="0px" y="0px" width="30px" height="30px" viewBox="0 0 30 30" enable-background="new 0 0 30 30" xml:space="preserve">
<defs>
</defs>
<path d="M23.5,8.5c-3.59,0-6.5,2.91-6.5,6.5c0,1.748,0.693,3.332,1.816,4.5h-7.633C12.307,18.332,13,16.748,13,15
	c0-3.59-2.91-6.5-6.5-6.5S0,11.41,0,15s2.91,6.5,6.5,6.5h17c3.59,0,6.5-2.91,6.5-6.5S27.09,8.5,23.5,8.5z M3,15
	c0-1.93,1.57-3.5,3.5-3.5S10,13.07,10,15s-1.57,3.5-3.5,3.5S3,16.93,3,15z M23.5,18.5c-1.93,0-3.5-1.57-3.5-3.5s1.57-3.5,3.5-3.5
	S27,13.07,27,15S25.43,18.5,23.5,18.5z"/>
<rect fill="none" width="30" height="30"/>
</svg>
