<?xml version="1.0" encoding="UTF-8"?>
<!DOCTYPE svg PUBLIC "-//W3C//DTD SVG 1.1 Tiny//EN" "http://www.w3.org/Graphics/SVG/1.1/DTD/svg11-tiny.dtd">
<svg baseProfile="tiny" height="60" viewBox="0 0 60 60" width="60" xmlns="http://www.w3.org/2000/svg" xmlns:xlink="http://www.w3.org/1999/xlink">
<rect fill="none" height="60" width="60"/>
<linearGradient gradientUnits="userSpaceOnUse" id="SVGID_1" x1="30" x2="30" y1="8.53" y2="50.71">
<stop offset="0" stop-color="#A0A3A6"/>
<stop offset="0.82" stop-color="#474B4D"/>
<stop offset="1" stop-color="#7B7E80"/>
</linearGradient>
<path d="M14.126,50.774c-1.029,0-1.865-0.835-1.865-1.865V10.397c0-1.028,0.836-1.864,1.865-1.864 h23.233c0.842,0,1.967,0.467,2.563,1.061l6.752,6.751c0.595,0.596,1.061,1.721,1.061,2.563v30.001c0,1.03-0.836,1.865-1.865,1.865 L14.126,50.774L14.126,50.774z" fill="url(#SVGID_1)"/>
<linearGradient gradientUnits="userSpaceOnUse" id="SVGID_2" x1="30" x2="30" y1="9.15" y2="50.09">
<stop offset="0" stop-color="#E6E9E8"/>
<stop offset="1" stop-color="#ADB2B5"/>
</linearGradient>
<path d="M39.482,10.035c-0.483-0.483-1.439-0.88-2.123-0.88H14.126c-0.684,0-1.244,0.561-1.244,1.243 v38.511c0,0.684,0.56,1.244,1.244,1.244h31.743c0.685,0,1.244-0.561,1.244-1.244v-30c0-0.684-0.396-1.639-0.879-2.123L39.482,10.035 z" fill="url(#SVGID_2)"/>
<linearGradient gradientUnits="userSpaceOnUse" id="SVGID_3" x1="30" x2="30" y1="9.26" y2="50.26">
<stop offset="0" stop-color="#F5F5F5"/>
<stop offset="0.78" stop-color="#CCCCCC"/>
<stop offset="1" stop-color="#D1D1D1"/>
</linearGradient>
<path d="M37.359,9.776c0.516,0,1.317,0.332,1.684,0.697l6.751,6.75 c0.365,0.366,0.697,1.167,0.697,1.684v30.001c0,0.344-0.278,0.622-0.622,0.622H14.126c-0.344,0-0.622-0.278-0.622-0.622V10.397 c0-0.342,0.278-0.622,0.622-0.622L37.359,9.776 M37.359,9.154H14.126c-0.684,0-1.244,0.561-1.244,1.243v38.511 c0,0.684,0.56,1.244,1.244,1.244h31.743c0.685,0,1.244-0.561,1.244-1.244v-30c0-0.684-0.396-1.639-0.879-2.123l-6.752-6.75 C38.999,9.552,38.043,9.154,37.359,9.154L37.359,9.154z" fill="url(#SVGID_3)"/>
<rect fill="#E6E7E8" height="0.612" width="22.941" x="16.24" y="45.59"/>
<linearGradient gradientUnits="userSpaceOnUse" id="SVGID_4" x1="28.02" x2="28.02" y1="45.58" y2="25.53">
<stop offset="0" stop-color="#666666"/>
<stop offset="1" stop-color="#282828"/>
</linearGradient>
<rect fill="url(#SVGID_4)" height="20.202" width="23.553" x="16.24" y="25.45"/>
<linearGradient gradientUnits="userSpaceOnUse" id="SVGID_5" x1="19.61" x2="19.61" y1="26.43" y2="44.18">
<stop offset="0" stop-color="#FFF173"/>
<stop offset="0.33" stop-color="#F1BC35"/>
<stop offset="0.66" stop-color="#E5B029"/>
<stop offset="1" stop-color="#FFA102"/>
</linearGradient>
<rect fill="url(#SVGID_5)" height="5.51" width="4.285" x="17.464" y="38.855"/>
<linearGradient gradientUnits="userSpaceOnUse" id="SVGID_6" x1="30.14" x2="30.14" y1="26.62" y2="43.94">
<stop offset="0" stop-color="#FFF173"/>
<stop offset="0.33" stop-color="#F1BC35"/>
<stop offset="0.66" stop-color="#E5B029"/>
<stop offset="1" stop-color="#FFA102"/>
</linearGradient>
<rect fill="url(#SVGID_6)" height="5.509" width="3.963" x="28.161" y="26.612"/>
<rect fill="url(#SVGID_6)" height="5.509" width="3.963" x="22.974" y="26.612"/>
<rect fill="url(#SVGID_6)" height="5.509" width="5.188" x="33.348" y="26.612"/>
<rect fill="url(#SVGID_5)" height="5.51" width="3.963" x="28.161" y="38.855"/>
<rect fill="url(#SVGID_5)" height="5.51" width="3.963" x="22.974" y="38.855"/>
<polygon fill="url(#SVGID_6)" points="21.683,33.346 21.683,26.612 17.464,26.612 17.464,37.631 38.535,37.631 38.535,33.346 "/>
<rect fill="url(#SVGID_5)" height="5.51" width="5.188" x="33.348" y="38.855"/>
<g transform="matrix(0.5 0 0 0.5 30 30)">
<rect fill="none" height="59.996" width="59.996"/>
<path d="M30.295,21.957c0.98,0,1.767-0.243,2.359-0.727 c0.592-0.485,0.888-1.15,0.888-2c0-0.825-0.306-1.487-0.915-1.982c-0.609-0.495-1.387-0.744-2.332-0.744 c-0.993,0-1.778,0.245-2.358,0.735c-0.581,0.491-0.87,1.154-0.87,1.991c0,0.849,0.296,1.515,0.888,2 C28.547,21.714,29.327,21.957,30.295,21.957z" fill-opacity="0.1" stroke-opacity="0.1"/>
<path d="M30.295,21.344c0.98,0,1.767-0.242,2.359-0.727s0.888-1.15,0.888-2 c0-0.825-0.306-1.486-0.915-1.982c-0.609-0.495-1.387-0.744-2.332-0.744c-0.993,0-1.778,0.245-2.358,0.735 c-0.581,0.49-0.87,1.154-0.87,1.991c0,0.849,0.296,1.515,0.888,2C28.547,21.102,29.327,21.344,30.295,21.344z" fill-opacity="0.2" stroke-opacity="0.2"/>
<linearGradient gradientUnits="userSpaceOnUse" id="SVGID_1_" x1="30" x2="30" y1="8.77" y2="51.63">
<stop offset="0" stop-color="#E5FFB2"/>
<stop offset="0.39" stop-color="#6AAB18"/>
<stop offset="0.68" stop-color="#247307"/>
<stop offset="1" stop-color="#C2FF4A"/>
</linearGradient>
<circle cx="29.998" cy="29.998" fill="url(#SVGID_1_)" r="21.427"/>
<radialGradient cx="30.2" cy="11.02" gradientUnits="userSpaceOnUse" id="SVGID_2_" r="39.38">
<stop offset="0" stop-color="#AFED23"/>
<stop offset="0.81" stop-color="#358C0C"/>
<stop offset="1" stop-color="#67AD1A"/>
</radialGradient>
<path d="M29.998,50.813c-11.478,0-20.815-9.337-20.815-20.814S18.521,9.183,29.998,9.183 c11.479,0,20.814,9.337,20.814,20.815S41.475,50.813,29.998,50.813L29.998,50.813z" fill="url(#SVGID_2_)"/>
<polygon fill-opacity="0.1" points="25.252,27.84 27.297,27.84 27.297,45.543 33.251,45.543 33.251,24.451 25.252,24.451 " stroke-opacity="0.1"/>
<polygon fill-opacity="0.2" points="25.252,27.228 27.297,27.228 27.297,44.932 33.251,44.932 33.251,23.838 25.252,23.838 " stroke-opacity="0.2"/>
<linearGradient gradientUnits="userSpaceOnUse" id="SVGID_3_" x1="29.25" x2="29.25" y1="15.88" y2="44.66">
<stop offset="0" stop-color="#F6FDFF"/>
<stop offset="1" stop-color="#ADB3B5"/>
</linearGradient>
<polygon fill="url(#SVGID_3_)" points="25.252,26.616 27.297,26.616 27.297,44.318 33.251,44.318 33.251,23.226 25.252,23.226 "/>
<path d="M30.274,21.038c0.981,0,1.767-0.242,2.359-0.727s0.888-1.15,0.888-2 c0-0.825-0.306-1.486-0.915-1.982c-0.609-0.495-1.387-0.744-2.332-0.744c-0.992,0-1.778,0.245-2.357,0.735 c-0.581,0.49-0.871,1.154-0.871,1.991c0,0.849,0.296,1.515,0.888,2C28.525,20.796,29.305,21.038,30.274,21.038z" fill="url(#SVGID_3_)"/>
</g>
</svg>
